<?xml version="1.0" standalone="no"?><!DOCTYPE svg PUBLIC "-//W3C//DTD SVG 1.1//EN" "http://www.w3.org/Graphics/SVG/1.1/DTD/svg11.dtd"><svg t="1734339862946" class="icon" viewBox="0 0 1024 1024" version="1.1" xmlns="http://www.w3.org/2000/svg" p-id="7690" xmlns:xlink="http://www.w3.org/1999/xlink" width="200" height="200"><path d="M0 0m128 0l768 0q128 0 128 128l0 768q0 128-128 128l-768 0q-128 0-128-128l0-768q0-128 128-128Z" fill="#2793FF" p-id="7691"></path><path d="M512 192a320 320 0 1 0 320 320 320 320 0 0 0-320-320z m162.752 338.496C637.376 519.68 562.304 460.8 482.432 467.584c-33.216 2.816-103.552 22.208-118.4 99.904-9.408 49.536 7.424 140.8 144.256 147.968 28.096 1.536 73.984-11.072 77.696-81.408 1.024-19.904-13.824-35.584-33.28-48.064C537.6 576.384 486.4 582.4 482.432 630.4c-1.152 15.232 22.208 51.776 22.208 51.776s-70.4-29.568-66.56-96c1.28-22.464 17.024-38.08 26.688-46.08 19.968-16.576 59.904-37.376 124.992-20.48 99.904 25.6 94.336 120.256 94.336 120.256 1.856 20.352-18.496 155.392-214.592 155.392s-236.8-166.4-236.8-166.4c3.712 11.072 103.552 55.488 85.056-14.784-37.504-142.592 18.496-140.8 55.488-188.672s-18.496-70.4-62.912-44.416-96 114.688-96 114.688c-18.624-148.288 129.344-211.2 129.344-211.2 122.112-66.56 236.8 55.488 236.8 55.488 88.768 133.184 140.8 125.76 170.176 110.976s-7.424-155.392-7.424-155.392 72.128 127.616 42.56 186.816c-20.032 40-72.576 59.264-111.04 48.128z" fill="#FFFFFF" p-id="7692"></path></svg>